<?xml version="1.0" encoding="UTF-8" standalone="no"?><!DOCTYPE svg PUBLIC "-//W3C//DTD SVG 1.1//EN" "http://www.w3.org/Graphics/SVG/1.1/DTD/svg11.dtd"><svg width="100%" height="100%" viewBox="0 0 3508 2481" version="1.1" xmlns="http://www.w3.org/2000/svg" xmlns:xlink="http://www.w3.org/1999/xlink" xml:space="preserve" xmlns:serif="http://www.serif.com/" style="fill-rule:evenodd;clip-rule:evenodd;stroke-linejoin:round;stroke-miterlimit:2;"><g><g><path d="M1705.07,1101.065c0,0 104.767,-326.507 494.338,-863.565c0,0 -391.605,341.764 -657.082,854.411c0,0 -149.522,260.392 -186.139,467.891c-36.618,207.5 -38.652,260.392 72.218,275.649c87.475,12.206 144.436,-2.034 157.659,-46.789c12.206,-39.669 32.549,-77.304 63.064,-105.784c32.549,-28.48 70.184,-57.978 99.681,-64.081c60.012,-12.206 290.906,192.242 290.906,192.242l0,-746.592l-273.615,-33.566l-61.029,70.184Zm-179.019,276.666c0,0 24.412,-68.149 128.162,-56.961c0,-1.017 -29.498,76.287 -128.162,56.961Z" style="fill:#8a1538;fill-rule:nonzero;"/></g></g></svg>