<svg xmlns="http://www.w3.org/2000/svg" xmlns:xlink="http://www.w3.org/1999/xlink" width="1080" height="1080" viewBox="0 0 810 809.999993" preserveAspectRatio="xMidYMid meet" version="1.0">
  <path fill="#ffffff" d="M 337.316406 108.902344 L 382.433594 278.097656 L 393.714844 278.097656 Z M 337.316406 108.902344" fill-opacity="1" fill-rule="nonzero" />
  <path fill="#ffffff" d="M 472.671875 108.902344 L 427.554688 278.097656 L 416.273438 278.097656 Z M 472.671875 108.902344" fill-opacity="1" fill-rule="nonzero" />
  <path fill="#ffffff" d="M 193.5 306.300781 L 278.097656 320.398438 L 249.898438 362.699219 Z M 193.5 306.300781" fill-opacity="1" fill-rule="nonzero" />
  <path fill="#ffffff" d="M 616.488281 306.300781 L 531.890625 320.398438 L 560.089844 362.699219 Z M 616.488281 306.300781" fill-opacity="1" fill-rule="nonzero" />
  <path fill="#ffffff" d="M 376.796875 297.839844 L 278.097656 334.5 L 334.496094 461.394531 L 376.796875 376.796875 Z M 376.796875 297.839844" fill-opacity="1" fill-rule="nonzero" />
  <path fill="#ffffff" d="M 433.195312 297.839844 L 531.890625 334.5 L 475.492188 461.394531 L 433.195312 376.796875 Z M 433.195312 297.839844" fill-opacity="1" fill-rule="nonzero" />
  <path fill="#ffffff" d="M 404.996094 306.300781 L 362.695312 489.59375 L 404.996094 560.09375 L 447.292969 489.59375 Z M 404.996094 306.300781" fill-opacity="1" fill-rule="nonzero" />
</svg>
