<?xml version="1.0" encoding="UTF-8" standalone="no"?><!DOCTYPE svg PUBLIC "-//W3C//DTD SVG 1.1//EN" "http://www.w3.org/Graphics/SVG/1.1/DTD/svg11.dtd"><svg width="100%" height="100%" viewBox="0 0 3000 2400" version="1.1" xmlns="http://www.w3.org/2000/svg" xmlns:xlink="http://www.w3.org/1999/xlink" xml:space="preserve" xmlns:serif="http://www.serif.com/" style="fill-rule:evenodd;clip-rule:evenodd;stroke-linejoin:round;stroke-miterlimit:2;"><g><g><path d="M1458.19,1065.368c0,0 89.598,-315.921 422.762,-835.568c0,0 -334.904,330.684 -561.942,826.71c0,0 -127.872,251.95 -159.188,452.722c-31.316,200.772 -33.055,251.95 61.761,266.712c74.81,11.81 123.523,-1.968 134.831,-45.272c10.439,-38.383 27.836,-74.798 53.933,-102.355c27.836,-27.557 60.022,-56.098 85.248,-62.003c51.323,-11.81 248.786,186.01 248.786,186.01l0,-722.387l-233.998,-32.478l-52.193,67.908Zm-153.099,267.697c0,0 20.877,-65.94 109.605,-55.114c0,-0.984 -25.227,73.813 -109.605,55.114Z" style="fill:#fff;fill-rule:nonzero;"/></g></g></svg>